<svg version="1.1" id="Layer_1" xmlns="http://www.w3.org/2000/svg" xmlns:xlink="http://www.w3.org/1999/xlink" x="0px" y="0px"
	 width="100%" viewBox="0 0 801 503" enable-background="new 0 0 801 503" xml:space="preserve">
<path fill="#FFFFFF" opacity="1.000000" stroke="none" 
	d="
M559.000000,504.000000 
	C372.666687,504.000000 186.833405,504.000000 1.000075,504.000000 
	C1.000050,336.333405 1.000050,168.666794 1.000025,1.000142 
	C267.999908,1.000095 534.999817,1.000095 801.999756,1.000047 
	C801.999878,168.666519 801.999878,336.333038 801.999939,503.999786 
	C721.166687,504.000000 640.333313,504.000000 559.000000,504.000000 
M405.562042,122.154999 
	C389.979919,121.769997 374.397247,121.405655 358.816498,120.971642 
	C357.037811,120.922096 355.275848,120.429710 353.496185,120.232376 
	C344.751526,119.262749 336.015686,117.539162 327.509827,121.795158 
	C322.712982,124.195290 317.766571,125.891930 312.079010,124.117233 
	C308.087860,122.871872 303.550568,121.493896 299.643524,122.228935 
	C289.509338,124.135475 279.492584,126.859131 269.607788,129.847992 
	C258.087158,133.331482 246.761887,137.188766 237.953995,146.321930 
	C232.876801,151.586624 227.130966,156.490143 220.921707,160.315536 
	C210.609573,166.668655 204.428833,176.592560 197.294388,185.653046 
	C193.258881,190.777985 196.204208,199.270447 202.011826,201.431213 
	C204.258408,202.267075 206.763672,202.379166 209.111984,202.975052 
	C217.923096,205.210968 225.675537,203.626480 232.916229,197.795303 
	C237.386063,194.195602 243.074631,192.120422 247.598724,188.573410 
	C251.194260,185.754395 254.923004,182.215805 256.720428,178.165833 
	C261.415070,167.587723 267.058777,163.096588 278.360413,163.000168 
	C284.024292,162.951859 287.222412,167.940430 284.570801,172.856995 
	C283.576569,174.700516 281.996796,176.230957 281.023529,178.082642 
	C275.850220,187.924942 270.423431,197.271210 268.456665,208.894180 
	C266.322845,221.504303 256.389252,230.887314 245.674957,237.298599 
	C236.146683,243.000229 227.162201,248.858200 219.423843,256.852753 
	C216.217926,260.164825 212.142075,263.381897 207.857376,264.752502 
	C197.894211,267.939606 189.540955,273.107330 182.635727,280.849335 
	C176.374557,287.869263 168.775070,292.382202 159.362885,294.116394 
	C152.359894,295.406708 148.533356,299.983612 150.253220,306.494263 
	C152.286972,314.193237 155.938187,321.524261 159.431259,328.752380 
	C161.085220,332.174866 164.487473,333.541443 168.637833,333.071930 
	C174.195404,332.443207 179.838058,332.548645 185.386841,331.869904 
	C187.470810,331.615021 189.764938,330.449677 191.328323,329.009918 
	C199.251358,321.713531 206.778992,313.981445 214.808167,306.808380 
	C222.122055,300.274323 229.822205,294.162170 237.491821,288.039032 
	C251.440262,276.903107 266.430573,267.068359 278.794983,253.952698 
	C281.395630,251.193985 285.416107,249.433456 289.105652,248.123825 
	C294.242157,246.300537 299.868439,245.823135 304.952271,243.893005 
	C313.310944,240.719528 321.397919,236.711212 330.244476,243.762177 
	C334.136810,248.017136 335.043732,252.767502 333.043762,258.242859 
	C327.507599,273.399384 318.939850,286.847992 308.401611,298.792542 
	C299.634460,308.729675 302.108978,323.249115 314.563934,325.216614 
	C319.835144,326.049286 325.081787,327.067841 330.304718,328.167755 
	C337.003540,329.578552 341.803345,327.026703 343.985504,320.694244 
	C345.241821,317.048462 346.131104,313.221130 347.823975,309.790527 
	C354.524200,296.212677 361.918274,283.050415 371.897919,271.503326 
	C373.582550,269.554169 374.624359,267.049438 376.288452,264.255127 
	C377.044922,266.644043 377.426605,268.218903 378.031982,269.702423 
	C382.547058,280.766083 389.400848,282.998810 399.980255,277.825470 
	C411.462585,272.210602 422.368408,265.390991 433.389679,258.867004 
	C442.302734,253.590927 451.590393,249.351456 459.381226,241.736771 
	C469.055603,232.281128 474.024597,233.216690 480.957825,241.500595 
	C488.648346,250.689331 496.742096,259.460785 498.906860,272.174744 
	C499.845947,277.690247 504.609528,282.504242 505.820709,288.034393 
	C508.215393,298.968445 509.333649,310.181152 511.005981,321.274689 
	C511.793365,326.497864 514.149231,330.819550 519.622864,331.911407 
	C526.789001,333.340912 534.108459,333.981934 541.325500,335.181519 
	C549.287964,336.505005 558.436890,327.047272 556.538147,319.119934 
	C553.790100,307.646362 550.500427,296.289825 548.125732,284.742706 
	C545.296387,270.984497 541.824707,257.269379 542.936951,242.961990 
	C543.435547,236.547348 540.511292,231.945877 534.527039,229.009796 
	C531.526245,227.537537 529.004700,225.023560 526.408569,222.813660 
	C524.594116,221.269150 523.210388,219.182632 521.305664,217.786667 
	C514.339844,212.681488 509.433746,196.799896 516.350830,189.186676 
	C519.632202,185.575058 524.055237,182.741592 526.495667,178.676010 
	C532.563416,168.567596 542.014343,163.543304 552.460327,160.054321 
	C557.932556,158.226593 564.254089,158.718735 569.515259,156.533615 
	C577.749146,153.113876 586.424377,153.114395 594.635620,153.322052 
	C618.251282,153.919327 635.253967,141.689789 650.717102,126.409843 
	C655.307129,121.874199 655.216858,118.321106 651.390137,110.768578 
	C648.907654,105.869194 644.935547,104.176010 640.019165,105.128784 
	C636.773254,105.757828 633.675415,107.412537 630.659058,108.906456 
	C625.443237,111.489761 620.530579,114.772644 615.157959,116.935356 
	C598.865051,123.494011 581.250610,121.176491 564.366821,123.928650 
	C560.798706,124.510292 557.082703,124.192131 553.434448,124.272736 
	C544.833923,124.462769 536.233887,124.698853 527.632263,124.808670 
	C521.588928,124.885826 515.538147,124.621376 509.500183,124.810959 
	C503.417297,125.001953 497.075317,126.876823 491.326721,125.689819 
	C479.732635,123.295784 468.149872,123.255974 456.470947,122.838593 
	C449.754211,122.598541 444.326263,124.819489 439.173828,128.434082 
	C436.632599,130.216812 434.332977,132.369583 432.054230,134.494537 
	C428.960327,137.379654 425.732971,139.150604 421.892548,135.960526 
	C418.100433,132.810532 414.485352,129.448181 410.723602,126.260406 
	C409.258484,125.018837 407.604797,123.999741 405.562042,122.154999 
M517.435791,115.000000 
	C518.100586,115.000000 518.765320,114.996635 519.430115,115.000519 
	C527.223328,115.046059 534.815369,113.165161 537.736450,105.515884 
	C540.938171,97.131874 539.965454,88.451263 532.994324,81.486473 
	C523.153931,71.655052 504.731293,70.744949 492.955811,79.524223 
	C485.910400,84.776993 483.675140,92.188194 485.203583,100.246193 
	C486.412231,106.618164 491.676117,110.416306 497.825226,111.913605 
	C503.930542,113.400246 510.250061,114.007233 517.435791,115.000000 
M445.025574,304.834473 
	C439.433014,315.526489 442.486725,325.622681 448.882080,331.094513 
	C461.862762,342.200745 481.637085,338.384949 486.683472,319.863129 
	C490.036194,307.557678 476.763733,292.320496 464.080933,294.002197 
	C456.472443,295.011047 450.094025,297.996185 445.025574,304.834473 
M556.000000,422.684540 
	C556.000000,420.633362 556.000000,418.582153 556.000000,416.530975 
	C556.404236,416.437378 556.808472,416.343750 557.212708,416.250153 
	C558.823486,420.194122 560.218567,424.247955 562.146240,428.030396 
	C562.968933,429.644684 565.043762,431.861572 566.297913,431.710846 
	C567.982178,431.508423 569.948181,429.560028 570.860229,427.860474 
	C572.850159,424.152283 574.250671,420.127808 575.892090,416.232605 
	C576.289246,416.344330 576.686401,416.456085 577.083557,416.567810 
	C577.083557,421.609100 577.083557,426.650360 577.083557,431.705933 
	C580.262268,431.705933 582.988220,431.705933 585.690430,431.705933 
	C585.690430,420.682800 585.690430,409.956573 585.690430,399.258270 
	C575.142761,398.514374 575.149780,398.517456 571.278625,407.295288 
	C569.963318,410.277863 568.603210,413.240662 566.792480,417.257568 
	C563.721130,410.400604 561.170227,404.705658 558.786987,399.384827 
	C554.566284,399.384827 550.836670,399.384827 547.225525,399.384827 
	C547.225525,410.375610 547.225525,420.980194 547.225525,431.748962 
	C550.179382,431.748962 552.904663,431.748962 556.000000,431.748962 
	C556.000000,428.875061 556.000000,426.246704 556.000000,422.684540 
M72.985748,409.684113 
	C69.895119,422.112213 74.370857,432.335632 88.925659,432.866486 
	C98.373398,433.211060 105.222893,430.497650 107.256798,423.071808 
	C108.189461,419.666626 107.983307,415.896088 107.956337,412.293793 
	C107.913338,406.549683 105.185333,401.894440 99.708542,400.504669 
	C94.558731,399.197876 88.894501,398.759979 83.630783,399.391510 
	C78.530487,400.003387 74.270844,403.141205 72.985748,409.684113 
M491.919098,432.583466 
	C504.413727,430.549835 504.963409,426.307404 506.903076,416.684601 
	C508.363800,409.437836 503.043976,401.204773 495.820496,399.466675 
	C492.669250,398.708405 489.236969,399.034119 485.931580,399.017181 
	C478.152405,398.977295 473.551117,401.204987 471.906342,407.869812 
	C470.262939,414.529022 468.921722,421.833679 474.392181,427.877014 
	C478.930573,432.890686 485.116486,432.671448 491.919098,432.583466 
M533.085266,423.511444 
	C533.555176,426.198151 534.025085,428.884827 534.533508,431.791809 
	C537.185669,431.791809 539.943176,431.791809 542.462830,431.791809 
	C542.301392,428.874237 542.209290,426.145172 541.977722,423.427979 
	C541.842041,421.835724 541.941162,419.955994 541.129700,418.744995 
	C539.492920,416.302338 540.115540,414.491364 541.272705,412.083313 
	C544.089905,406.220764 541.640259,400.903778 535.356812,400.113800 
	C527.428589,399.117004 519.383423,399.049652 511.276367,398.574738 
	C511.276367,410.252502 511.276367,420.974396 511.276367,431.696045 
	C514.290527,431.696045 517.017700,431.696045 520.194641,431.696045 
	C520.194641,427.995544 520.194641,424.592377 520.194641,420.145966 
	C524.852966,421.060028 528.891296,421.852448 533.085266,423.511444 
M433.052429,402.583435 
	C431.346100,401.721313 429.694092,400.260986 427.924072,400.100250 
	C420.112915,399.391174 412.267792,399.056366 404.252991,398.575104 
	C404.252991,410.203827 404.252991,420.923492 404.252991,431.721649 
	C407.239502,431.721649 409.965088,431.721649 413.142944,431.721649 
	C413.142944,428.047455 413.142944,424.640289 413.142944,420.645966 
	C417.183746,421.064941 421.668365,420.264221 423.991913,422.140167 
	C426.154053,423.885834 426.014313,428.482483 426.877258,431.783112 
	C429.354736,431.783112 431.963654,431.783112 434.929962,431.783112 
	C434.730591,425.933929 436.542969,419.987793 431.439087,415.405640 
	C435.614166,411.883331 435.681610,407.698822 433.052429,402.583435 
M641.480835,403.996582 
	C638.551453,397.978485 633.506348,398.453278 628.344910,399.323669 
	C628.344910,410.402832 628.344910,421.127930 628.344910,431.803467 
	C631.304321,431.803467 633.916931,431.803467 637.003540,431.803467 
	C637.003540,425.930450 637.003540,420.230408 637.003540,414.530365 
	C640.355896,417.157196 642.499512,420.369659 645.079590,423.181488 
	C649.006531,427.461090 651.361084,434.778320 659.727051,431.443268 
	C659.727051,420.758911 659.727051,410.029633 659.727051,399.303589 
	C657.052124,399.303589 654.658447,399.303589 651.621826,399.303589 
	C651.621826,405.051239 651.621826,410.512238 651.621826,417.463654 
	C647.738831,412.304352 644.837097,408.448853 641.480835,403.996582 
M129.005112,409.506378 
	C128.250641,408.451385 127.455719,407.422760 126.748596,406.336945 
	C123.352432,401.122009 119.514603,396.864746 112.270950,399.562714 
	C112.270950,410.216736 112.270950,420.955566 112.270950,431.694580 
	C114.946236,431.694580 117.342102,431.694580 120.251678,431.694580 
	C120.251678,425.401886 120.251678,419.408051 120.251678,411.957550 
	C124.110435,417.233459 127.047775,421.325256 130.066177,425.356354 
	C133.454163,429.881042 136.923523,434.332764 143.706757,431.447235 
	C143.706757,420.730133 143.706757,409.991638 143.706757,399.330719 
	C141.007385,399.330719 138.610474,399.330719 135.550903,399.330719 
	C135.550903,405.412781 135.550903,411.176331 135.550903,418.001251 
	C133.013367,414.639221 131.269226,412.328369 129.005112,409.506378 
M694.719360,413.000000 
	C696.356018,413.000000 697.992737,413.000000 699.591675,413.000000 
	C700.401672,404.475555 694.116211,399.405121 686.253723,398.960754 
	C668.526367,397.958984 665.082642,404.951111 665.275452,415.859680 
	C665.494263,428.238312 671.037903,432.768860 683.096191,432.891571 
	C694.038513,433.002930 700.169434,427.146698 699.555542,418.069672 
	C695.515442,418.212189 691.478821,416.734497 688.450562,421.724548 
	C686.244568,425.359711 680.607788,424.803986 677.141113,421.644012 
	C673.467773,418.295654 672.956787,414.382935 675.723206,410.785156 
	C678.822205,406.754791 686.633545,406.867981 690.032288,410.802826 
	C690.938293,411.851776 692.558105,412.284241 694.719360,413.000000 
M254.644470,399.832642 
	C244.535217,401.078003 243.455734,413.803070 245.885010,423.407166 
	C248.518661,433.819336 266.067474,435.636963 274.232483,429.220123 
	C277.739594,426.463928 279.682861,422.925812 278.777283,418.287842 
	C274.343658,417.720947 270.790131,417.463135 267.662384,421.544006 
	C264.601227,425.538025 259.160095,424.870911 255.586411,421.101074 
	C253.236572,418.622284 253.290634,412.230804 255.682022,409.800659 
	C258.089813,407.353851 266.062988,406.754517 267.847290,409.552887 
	C270.759338,414.119904 274.681946,412.846710 278.567932,412.914795 
	C279.216064,406.856720 276.326904,401.310242 270.926331,400.195374 
	C265.859375,399.149384 260.502014,399.509979 254.644470,399.832642 
M720.478333,399.000000 
	C715.395386,399.000000 710.312378,399.000000 705.325073,399.000000 
	C705.325073,410.353729 705.325073,421.065094 705.325073,431.673950 
	C714.044983,431.673950 722.436340,431.673950 730.638733,431.673950 
	C730.638733,428.944977 730.638733,426.550690 730.638733,423.998901 
	C725.468384,423.998901 720.655701,423.905731 715.848572,424.029663 
	C712.286621,424.121460 712.646301,422.406738 713.652466,419.844940 
	C719.058838,419.844940 724.329285,419.844940 729.750671,419.844940 
	C729.750671,416.818634 729.750671,414.096313 729.750671,411.398346 
	C724.118591,410.015198 718.100342,412.414917 712.899414,409.975555 
	C712.965271,409.323975 713.031067,408.672424 713.096863,408.020874 
	C718.977600,408.020874 724.858276,408.020874 730.687256,408.020874 
	C730.687256,404.696716 730.687256,401.972778 730.687256,399.000000 
	C727.406372,399.000000 724.435791,399.000000 720.478333,399.000000 
M391.457916,424.000000 
	C388.016937,424.000000 384.575989,424.000000 381.135010,424.000000 
	C381.022156,423.328461 380.909332,422.656891 380.796478,421.985352 
	C385.486755,417.033112 392.646820,422.118164 397.797180,419.329346 
	C397.797180,416.676849 397.797180,414.065338 397.797180,410.999146 
	C392.996094,410.999146 388.383392,411.067017 383.775970,410.941650 
	C382.859375,410.916687 381.962860,410.152039 381.057098,409.728485 
	C381.975922,409.152588 382.878967,408.110443 383.816162,408.078827 
	C388.751007,407.912262 393.694489,408.000824 398.732635,408.000824 
	C398.732635,404.784241 398.732635,402.061401 398.732635,399.280823 
	C390.080383,399.280823 381.698029,399.280823 373.286926,399.280823 
	C373.286926,410.274933 373.286926,420.985718 373.286926,431.708923 
	C381.966003,431.708923 390.354858,431.708923 398.678223,431.708923 
	C398.678223,429.016327 398.678223,426.623688 398.678223,424.000000 
	C396.382935,424.000000 394.407349,424.000000 391.457916,424.000000 
M304.299957,410.998688 
	C300.342438,410.998688 296.384949,410.998688 291.974792,410.998688 
	C291.974792,406.839233 291.974792,403.089172 291.974792,399.277008 
	C289.106964,399.277008 286.712067,399.277008 284.301849,399.277008 
	C284.301849,410.293488 284.301849,421.030457 284.301849,431.661316 
	C287.011475,431.661316 289.410156,431.661316 292.266907,431.661316 
	C292.266907,427.588867 292.266907,423.854706 292.266907,420.225891 
	C297.358307,420.225891 301.971100,420.225891 307.042542,420.225891 
	C307.042542,424.176483 307.042542,427.924866 307.042542,431.713104 
	C310.244415,431.713104 312.972046,431.713104 316.000000,431.713104 
	C316.000000,426.126129 316.000000,420.821045 316.000000,415.515961 
	C316.000000,410.081055 316.000000,404.646149 316.000000,399.347565 
	C312.634918,399.347565 309.904083,399.347565 306.999878,399.347565 
	C306.999878,402.179199 307.193085,404.687927 306.922302,407.145569 
	C306.776245,408.471619 305.836334,409.710175 304.299957,410.998688 
M347.475403,109.090424 
	C357.708801,112.724510 367.713593,111.290337 377.277740,107.004738 
	C379.726410,105.907501 382.192383,102.986984 382.996857,100.391579 
	C387.421936,86.115616 380.208923,76.158470 366.209106,73.286003 
	C359.653412,71.940910 352.343018,72.984253 345.597046,74.189697 
	C337.541504,75.629158 333.702606,81.946991 332.262390,89.554504 
	C331.178772,95.278404 331.528229,100.956009 337.094513,104.496948 
	C340.041748,106.371788 343.446930,107.526749 347.475403,109.090424 
M367.975708,413.862061 
	C367.983185,412.034302 368.232025,410.168060 367.948242,408.386688 
	C367.342987,404.587463 366.072479,400.639557 361.723541,400.140045 
	C353.964508,399.248871 346.123901,399.067810 338.291382,398.588226 
	C338.291382,410.316101 338.291382,421.030273 338.291382,431.682159 
	C340.990723,431.682159 343.382843,431.682159 346.221375,431.682159 
	C346.221375,428.300781 346.221375,425.236267 346.221375,421.999817 
	C349.324310,421.999817 351.973511,422.079681 354.616302,421.983276 
	C360.225128,421.778748 365.242340,420.424072 367.975708,413.862061 
M167.788330,399.102875 
	C167.788330,409.950714 167.788330,420.798553 167.788330,431.716675 
	C169.910645,431.716675 172.308456,431.716675 175.163666,431.716675 
	C175.163666,428.365845 175.163666,425.290131 175.163666,421.999542 
	C178.109482,421.999542 180.594025,422.085541 183.070862,421.984009 
	C191.936432,421.620758 195.155426,419.363586 196.796524,412.480743 
	C198.264740,406.322845 194.800858,400.756378 188.478851,400.072266 
	C181.939423,399.364655 175.326416,399.337097 167.788330,399.102875 
M614.926025,429.555481 
	C617.445740,434.264954 621.440125,431.106567 625.283325,431.963989 
	C621.767212,423.422333 618.473145,415.550476 615.283508,407.636505 
	C611.723450,398.803528 611.764648,398.784302 602.255981,399.047455 
	C601.939331,399.056213 601.627258,399.231750 601.389404,399.305786 
	C597.313660,410.124969 593.256653,420.894409 589.131714,431.844238 
	C594.007935,432.019318 598.859375,433.513275 600.126465,427.033997 
	C600.220154,426.554932 601.654236,426.081451 602.482727,426.048676 
	C605.471252,425.930450 608.500366,425.749084 611.443115,426.134125 
	C612.525146,426.275696 613.409729,427.925354 614.926025,429.555481 
M441.671753,431.986206 
	C444.079681,431.986206 446.487610,431.986206 449.163177,431.986206 
	C449.163177,427.630768 449.163177,424.021820 449.163177,419.963989 
	C454.840729,419.963989 460.246735,419.963989 465.726501,419.963989 
	C465.726501,416.774170 465.726501,414.050049 465.726501,411.000000 
	C462.493378,411.000000 459.486145,411.310822 456.578552,410.906158 
	C454.045959,410.553650 450.522736,412.730164 448.285034,407.961060 
	C454.701904,407.961060 460.250366,407.961060 465.651855,407.961060 
	C465.651855,404.628265 465.651855,401.903870 465.651855,399.363220 
	C456.913208,399.363220 448.526917,399.363220 440.000000,399.363220 
	C440.000000,404.874878 439.904724,410.026215 440.025757,415.172485 
	C440.156860,420.747009 440.489624,426.316742 441.671753,431.986206 
M223.988907,409.757202 
	C223.988907,417.037262 223.988907,424.317291 223.988907,431.749390 
	C226.847519,431.749390 229.239807,431.749390 232.088455,431.749390 
	C232.088455,423.775146 232.088455,416.042358 232.088455,407.862549 
	C235.945831,407.862549 239.353653,407.862549 242.670273,407.862549 
	C242.670273,404.667694 242.670273,401.941711 242.670273,399.340576 
	C232.943237,399.340576 223.549271,399.340576 214.371918,399.340576 
	C214.371918,402.421082 214.371918,405.152893 214.371918,407.562225 
	C217.818451,408.012482 220.861359,408.410034 223.988907,409.757202 
M200.000000,423.453339 
	C200.000000,426.217560 200.000000,428.981812 200.000000,431.686707 
	C203.311279,431.686707 206.032059,431.686707 208.707916,431.686707 
	C208.707916,420.669647 208.707916,409.968353 208.707916,399.314331 
	C205.686768,399.314331 202.965958,399.314331 200.323517,399.314331 
	C200.176361,399.937042 200.039703,400.247559 200.038773,400.558472 
	C200.016968,407.860046 200.009842,415.161652 200.000000,423.453339 
z"/>
<path fill="#FF4900" opacity="1.000000" stroke="none" 
	d="
M406.037048,122.879303 
	C407.604797,123.999741 409.258484,125.018837 410.723602,126.260406 
	C414.485352,129.448181 418.100433,132.810532 421.892548,135.960526 
	C425.732971,139.150604 428.960327,137.379654 432.054230,134.494537 
	C434.332977,132.369583 436.632599,130.216812 439.173828,128.434082 
	C444.326263,124.819489 449.754211,122.598541 456.470947,122.838593 
	C468.149872,123.255974 479.732635,123.295784 491.326721,125.689819 
	C497.075317,126.876823 503.417297,125.001953 509.500183,124.810959 
	C515.538147,124.621376 521.588928,124.885826 527.632263,124.808670 
	C536.233887,124.698853 544.833923,124.462769 553.434448,124.272736 
	C557.082703,124.192131 560.798706,124.510292 564.366821,123.928650 
	C581.250610,121.176491 598.865051,123.494011 615.157959,116.935356 
	C620.530579,114.772644 625.443237,111.489761 630.659058,108.906456 
	C633.675415,107.412537 636.773254,105.757828 640.019165,105.128784 
	C644.935547,104.176010 648.907654,105.869194 651.390137,110.768578 
	C655.216858,118.321106 655.307129,121.874199 650.717102,126.409843 
	C635.253967,141.689789 618.251282,153.919327 594.635620,153.322052 
	C586.424377,153.114395 577.749146,153.113876 569.515259,156.533615 
	C564.254089,158.718735 557.932556,158.226593 552.460327,160.054321 
	C542.014343,163.543304 532.563416,168.567596 526.495667,178.676010 
	C524.055237,182.741592 519.632202,185.575058 516.350830,189.186676 
	C509.433746,196.799896 514.339844,212.681488 521.305664,217.786667 
	C523.210388,219.182632 524.594116,221.269150 526.408569,222.813660 
	C529.004700,225.023560 531.526245,227.537537 534.527039,229.009796 
	C540.511292,231.945877 543.435547,236.547348 542.936951,242.961990 
	C541.824707,257.269379 545.296387,270.984497 548.125732,284.742706 
	C550.500427,296.289825 553.790100,307.646362 556.538147,319.119934 
	C558.436890,327.047272 549.287964,336.505005 541.325500,335.181519 
	C534.108459,333.981934 526.789001,333.340912 519.622864,331.911407 
	C514.149231,330.819550 511.793365,326.497864 511.005981,321.274689 
	C509.333649,310.181152 508.215393,298.968445 505.820709,288.034393 
	C504.609528,282.504242 499.845947,277.690247 498.906860,272.174744 
	C496.742096,259.460785 488.648346,250.689331 480.957825,241.500595 
	C474.024597,233.216690 469.055603,232.281128 459.381226,241.736771 
	C451.590393,249.351456 442.302734,253.590927 433.389679,258.867004 
	C422.368408,265.390991 411.462585,272.210602 399.980255,277.825470 
	C389.400848,282.998810 382.547058,280.766083 378.031982,269.702423 
	C377.426605,268.218903 377.044922,266.644043 376.288452,264.255127 
	C374.624359,267.049438 373.582550,269.554169 371.897919,271.503326 
	C361.918274,283.050415 354.524200,296.212677 347.823975,309.790527 
	C346.131104,313.221130 345.241821,317.048462 343.985504,320.694244 
	C341.803345,327.026703 337.003540,329.578552 330.304718,328.167755 
	C325.081787,327.067841 319.835144,326.049286 314.563934,325.216614 
	C302.108978,323.249115 299.634460,308.729675 308.401611,298.792542 
	C318.939850,286.847992 327.507599,273.399384 333.043762,258.242859 
	C335.043732,252.767502 334.136810,248.017136 330.109589,243.075439 
	C330.020844,240.911270 330.066986,239.433853 330.463135,237.980423 
	C338.575958,243.704041 340.119812,248.585159 338.143005,257.830933 
	C336.230194,266.777496 332.098785,274.492462 326.780670,281.768311 
	C320.841583,289.893646 315.027100,298.111847 309.267212,306.365540 
	C306.400970,310.472748 307.997375,316.454315 312.961121,318.886932 
	C316.683411,320.711151 320.744537,322.230957 324.815308,322.880798 
	C334.926697,324.494873 337.291229,322.568695 340.438324,315.339142 
	C345.143280,304.530884 350.286957,293.849823 356.133698,283.623352 
	C360.462372,276.052094 366.157776,269.254120 371.351746,262.190704 
	C372.839264,260.167786 372.522430,258.634094 371.218445,256.655487 
	C364.114807,245.876770 356.316254,235.606186 346.505157,227.216446 
	C340.022766,221.673203 341.531128,213.088684 346.371521,208.340591 
	C349.294281,205.473557 349.275543,203.266830 347.091827,200.334076 
	C346.526825,199.575333 346.314484,198.555298 345.933228,197.658234 
	C342.155823,188.770599 342.822052,179.794083 352.229614,174.268356 
	C354.004761,173.225677 356.133209,171.838806 356.845306,170.098053 
	C359.714325,163.084824 364.051849,158.302689 372.090454,157.931274 
	C372.389069,157.917480 372.666718,157.632782 372.970215,157.516037 
	C379.036346,155.182510 384.885773,155.345490 391.025543,157.866562 
	C396.046722,159.928314 401.965515,165.161224 406.185974,156.398972 
	C406.293030,156.176727 406.810791,156.188919 407.039917,155.983459 
	C412.017822,151.519257 416.981964,147.039612 421.237793,143.203735 
	C416.319641,138.351501 411.639984,133.734589 406.971497,128.716019 
	C406.667419,126.502670 406.352234,124.690987 406.037048,122.879303 
M419.687286,184.079803 
	C416.393372,192.347885 412.103699,199.835098 405.024658,205.641602 
	C400.780426,209.122925 396.509277,211.418182 390.880829,211.037918 
	C383.164062,210.516586 376.114532,205.796722 374.174500,199.526794 
	C371.774414,191.770081 374.700897,184.560440 381.953979,179.465195 
	C387.534058,175.545212 392.893951,171.311752 399.133972,166.630936 
	C394.287476,164.619003 390.751587,163.154877 387.220032,161.680374 
	C386.771332,161.493042 386.345123,161.064514 385.908844,161.064987 
	C382.763733,161.068497 379.424591,160.491837 376.512604,161.345886 
	C369.665497,163.354004 362.939575,165.701981 360.437256,173.832153 
	C359.796448,175.914185 357.039062,177.522751 354.981018,178.956940 
	C349.036377,183.099594 347.562714,187.250656 349.960358,194.053375 
	C352.319672,200.747284 354.122620,201.522827 360.106567,198.416885 
	C360.975525,197.965866 361.847351,197.520126 362.710938,197.059006 
	C366.417358,195.079880 368.822723,196.093613 371.079803,199.712494 
	C373.198730,203.109848 375.881348,206.392075 378.988556,208.887375 
	C385.441681,214.069641 392.356354,218.675247 399.047394,223.564270 
	C401.414154,225.293640 403.653229,228.519135 406.003693,228.569168 
	C408.250641,228.617020 410.559753,225.416718 412.858948,223.667038 
	C413.239716,223.377258 413.767212,223.273209 414.130188,222.968185 
	C422.938995,215.565903 431.734650,208.147980 440.492676,200.766571 
	C433.360474,191.522491 428.115784,187.205902 419.687286,184.079803 
M446.474213,171.965439 
	C444.173676,169.216797 441.873138,166.468155 438.761658,162.750610 
	C433.160736,168.208084 428.007355,173.229477 423.612091,177.512177 
	C432.230865,185.301285 440.406433,192.656860 448.545044,200.053146 
	C459.179413,209.717575 461.582489,210.859604 469.697876,197.800781 
	C470.199036,196.994354 470.585114,196.115631 471.013489,195.264877 
	C473.134216,191.052887 472.845581,188.333664 467.874573,185.775360 
	C460.567841,182.014984 453.919312,176.975739 446.474213,171.965439 
M459.069153,172.605576 
	C460.913239,169.823380 462.757324,167.041183 464.588867,164.277893 
	C458.662170,159.610825 453.122864,161.066254 447.054230,162.918365 
	C449.664886,168.395065 453.962158,171.713394 458.621368,174.689117 
	C458.749176,174.235504 458.876984,173.781891 459.069153,172.605576 
z"/>
<path fill="#FF4900" opacity="1.000000" stroke="none" 
	d="
M405.799561,122.517151 
	C406.352234,124.690987 406.667419,126.502670 406.616150,128.544861 
	C404.268646,128.183594 402.306610,127.156898 400.303680,127.069695 
	C385.895447,126.442459 371.477753,126.037834 357.065948,125.486122 
	C353.461578,125.348137 349.859894,124.623711 346.271271,124.717346 
	C341.330261,124.846260 335.971771,124.409988 331.562988,126.159004 
	C323.389496,129.401505 315.433655,129.591721 307.033875,128.138458 
	C302.875366,127.418983 298.383026,126.638924 294.373627,127.476006 
	C286.816040,129.053894 279.422516,131.561295 272.098969,134.083542 
	C260.271729,138.156891 248.318558,141.943741 239.495056,151.815826 
	C235.929825,155.804718 231.273361,158.807892 227.184006,162.341248 
	C221.669647,167.105850 216.044250,171.764374 210.816574,176.829727 
	C207.793152,179.759293 205.566971,183.493866 202.784882,186.694824 
	C199.371674,190.621933 200.426636,195.618729 205.468536,196.899673 
	C209.852158,198.013382 214.421799,198.572372 218.942932,198.878006 
	C220.695724,198.996506 222.724167,198.043533 224.312332,197.066879 
	C230.909134,193.010239 237.161179,188.333664 243.983765,184.723785 
	C248.717834,182.218964 251.416809,178.737183 252.969452,173.936050 
	C254.712967,168.544662 256.919373,163.452255 262.935913,161.584839 
	C267.250244,160.245743 271.597382,158.853210 276.035095,158.131149 
	C278.662933,157.703583 281.828979,157.823990 284.174377,158.927643 
	C291.782928,162.507919 292.242340,171.075195 287.850952,177.918304 
	C282.736115,185.888763 278.668945,194.559967 274.541382,203.117218 
	C273.398560,205.486481 274.092133,208.683258 273.200531,211.241577 
	C268.145233,225.747192 258.433960,236.318954 245.258224,244.016846 
	C239.532272,247.362213 233.101944,250.351257 228.838043,255.144669 
	C222.891022,261.830200 216.319321,266.895538 208.108414,270.009857 
	C200.079239,273.055206 192.753235,277.049591 186.872787,283.538879 
	C183.974777,286.736969 180.882874,290.123077 177.180206,292.144928 
	C171.291229,295.360626 164.882233,297.678528 158.566956,300.038269 
	C154.867706,301.420563 154.104034,304.230835 155.171829,307.117981 
	C157.460648,313.306763 160.239853,319.333099 163.174698,325.249176 
	C163.817398,326.544708 165.951004,327.866821 167.395309,327.863831 
	C173.151688,327.851990 178.911545,327.378357 184.657715,326.920258 
	C185.498505,326.853210 186.373352,326.053741 187.061951,325.410614 
	C197.816895,315.366089 208.500610,305.244843 219.305984,295.255096 
	C222.171494,292.605896 225.321396,290.245911 228.459930,287.913544 
	C245.542221,275.219025 263.157593,263.201080 277.975891,247.689438 
	C279.721985,245.861649 282.580109,244.866150 285.106018,244.057159 
	C292.302856,241.752228 299.597260,239.752731 306.847870,237.614700 
	C314.641479,235.316589 322.440521,232.204300 330.113159,237.956436 
	C330.066986,239.433853 330.020844,240.911270 329.966125,242.751587 
	C321.397919,236.711212 313.310944,240.719528 304.952271,243.893005 
	C299.868439,245.823135 294.242157,246.300537 289.105652,248.123825 
	C285.416107,249.433456 281.395630,251.193985 278.794983,253.952698 
	C266.430573,267.068359 251.440262,276.903107 237.491821,288.039032 
	C229.822205,294.162170 222.122055,300.274323 214.808167,306.808380 
	C206.778992,313.981445 199.251358,321.713531 191.328323,329.009918 
	C189.764938,330.449677 187.470810,331.615021 185.386841,331.869904 
	C179.838058,332.548645 174.195404,332.443207 168.637833,333.071930 
	C164.487473,333.541443 161.085220,332.174866 159.431259,328.752380 
	C155.938187,321.524261 152.286972,314.193237 150.253220,306.494263 
	C148.533356,299.983612 152.359894,295.406708 159.362885,294.116394 
	C168.775070,292.382202 176.374557,287.869263 182.635727,280.849335 
	C189.540955,273.107330 197.894211,267.939606 207.857376,264.752502 
	C212.142075,263.381897 216.217926,260.164825 219.423843,256.852753 
	C227.162201,248.858200 236.146683,243.000229 245.674957,237.298599 
	C256.389252,230.887314 266.322845,221.504303 268.456665,208.894180 
	C270.423431,197.271210 275.850220,187.924942 281.023529,178.082642 
	C281.996796,176.230957 283.576569,174.700516 284.570801,172.856995 
	C287.222412,167.940430 284.024292,162.951859 278.360413,163.000168 
	C267.058777,163.096588 261.415070,167.587723 256.720428,178.165833 
	C254.923004,182.215805 251.194260,185.754395 247.598724,188.573410 
	C243.074631,192.120422 237.386063,194.195602 232.916229,197.795303 
	C225.675537,203.626480 217.923096,205.210968 209.111984,202.975052 
	C206.763672,202.379166 204.258408,202.267075 202.011826,201.431213 
	C196.204208,199.270447 193.258881,190.777985 197.294388,185.653046 
	C204.428833,176.592560 210.609573,166.668655 220.921707,160.315536 
	C227.130966,156.490143 232.876801,151.586624 237.953995,146.321930 
	C246.761887,137.188766 258.087158,133.331482 269.607788,129.847992 
	C279.492584,126.859131 289.509338,124.135475 299.643524,122.228935 
	C303.550568,121.493896 308.087860,122.871872 312.079010,124.117233 
	C317.766571,125.891930 322.712982,124.195290 327.509827,121.795158 
	C336.015686,117.539162 344.751526,119.262749 353.496185,120.232376 
	C355.275848,120.429710 357.037811,120.922096 358.816498,120.971642 
	C374.397247,121.405655 389.979919,121.769997 405.799561,122.517151 
z"/>
<path fill="#FF4900" opacity="1.000000" stroke="none" 
	d="
M516.955688,115.000000 
	C510.250061,114.007233 503.930542,113.400246 497.825226,111.913605 
	C491.676117,110.416306 486.412231,106.618164 485.203583,100.246193 
	C483.675140,92.188194 485.910400,84.776993 492.955811,79.524223 
	C504.731293,70.744949 523.153931,71.655052 532.994324,81.486473 
	C539.965454,88.451263 540.938171,97.131874 537.736450,105.515884 
	C534.815369,113.165161 527.223328,115.046059 519.430115,115.000519 
	C518.765320,114.996635 518.100586,115.000000 516.955688,115.000000 
z"/>
<path fill="#FF4900" opacity="1.000000" stroke="none" 
	d="
M445.188080,304.491791 
	C450.094025,297.996185 456.472443,295.011047 464.080933,294.002197 
	C476.763733,292.320496 490.036194,307.557678 486.683472,319.863129 
	C481.637085,338.384949 461.862762,342.200745 448.882080,331.094513 
	C442.486725,325.622681 439.433014,315.526489 445.188080,304.491791 
z"/>
<path fill="#FF4900" opacity="1.000000" stroke="none" 
	d="
M556.000000,423.151428 
	C556.000000,426.246704 556.000000,428.875061 556.000000,431.748962 
	C552.904663,431.748962 550.179382,431.748962 547.225525,431.748962 
	C547.225525,420.980194 547.225525,410.375610 547.225525,399.384827 
	C550.836670,399.384827 554.566284,399.384827 558.786987,399.384827 
	C561.170227,404.705658 563.721130,410.400604 566.792480,417.257568 
	C568.603210,413.240662 569.963318,410.277863 571.278625,407.295288 
	C575.149780,398.517456 575.142761,398.514374 585.690430,399.258270 
	C585.690430,409.956573 585.690430,420.682800 585.690430,431.705933 
	C582.988220,431.705933 580.262268,431.705933 577.083557,431.705933 
	C577.083557,426.650360 577.083557,421.609100 577.083557,416.567810 
	C576.686401,416.456085 576.289246,416.344330 575.892090,416.232605 
	C574.250671,420.127808 572.850159,424.152283 570.860229,427.860474 
	C569.948181,429.560028 567.982178,431.508423 566.297913,431.710846 
	C565.043762,431.861572 562.968933,429.644684 562.146240,428.030396 
	C560.218567,424.247955 558.823486,420.194122 557.212708,416.250153 
	C556.808472,416.343750 556.404236,416.437378 556.000000,416.530975 
	C556.000000,418.582153 556.000000,420.633362 556.000000,423.151428 
z"/>
<path fill="#FF4900" opacity="1.000000" stroke="none" 
	d="
M72.993523,409.266296 
	C74.270844,403.141205 78.530487,400.003387 83.630783,399.391510 
	C88.894501,398.759979 94.558731,399.197876 99.708542,400.504669 
	C105.185333,401.894440 107.913338,406.549683 107.956337,412.293793 
	C107.983307,415.896088 108.189461,419.666626 107.256798,423.071808 
	C105.222893,430.497650 98.373398,433.211060 88.925659,432.866486 
	C74.370857,432.335632 69.895119,422.112213 72.993523,409.266296 
M98.972275,418.894104 
	C99.056549,409.106689 97.594193,407.642944 88.088867,408.000214 
	C83.103584,408.187592 79.710022,413.402100 81.540474,418.062378 
	C84.390480,425.318329 92.441231,426.084106 98.972275,418.894104 
z"/>
<path fill="#FF4900" opacity="1.000000" stroke="none" 
	d="
M491.521362,432.765503 
	C485.116486,432.671448 478.930573,432.890686 474.392181,427.877014 
	C468.921722,421.833679 470.262939,414.529022 471.906342,407.869812 
	C473.551117,401.204987 478.152405,398.977295 485.931580,399.017181 
	C489.236969,399.034119 492.669250,398.708405 495.820496,399.466675 
	C503.043976,401.204773 508.363800,409.437836 506.903076,416.684601 
	C504.963409,426.307404 504.413727,430.549835 491.521362,432.765503 
M492.718842,408.237793 
	C489.793701,408.345032 486.779480,408.044617 483.965179,408.659332 
	C480.160889,409.490295 478.789062,413.054993 479.241364,416.214569 
	C479.842682,420.414825 482.565338,423.580109 487.335938,423.991272 
	C492.025970,424.395447 496.886902,421.683777 497.657135,417.543884 
	C498.332855,413.911896 497.506836,410.356201 492.718842,408.237793 
z"/>
<path fill="#FF4900" opacity="1.000000" stroke="none" 
	d="
M533.007446,423.078125 
	C528.891296,421.852448 524.852966,421.060028 520.194641,420.145966 
	C520.194641,424.592377 520.194641,427.995544 520.194641,431.696045 
	C517.017700,431.696045 514.290527,431.696045 511.276367,431.696045 
	C511.276367,420.974396 511.276367,410.252502 511.276367,398.574738 
	C519.383423,399.049652 527.428589,399.117004 535.356812,400.113800 
	C541.640259,400.903778 544.089905,406.220764 541.272705,412.083313 
	C540.115540,414.491364 539.492920,416.302338 541.129700,418.744995 
	C541.941162,419.955994 541.842041,421.835724 541.977722,423.427979 
	C542.209290,426.145172 542.301392,428.874237 542.462830,431.791809 
	C539.943176,431.791809 537.185669,431.791809 534.533508,431.791809 
	C534.025085,428.884827 533.555176,426.198151 533.007446,423.078125 
M528.252197,413.000000 
	C531.640503,413.270874 533.821228,412.409241 532.665710,408.227539 
	C528.524109,408.227539 524.446960,408.227539 520.240845,408.227539 
	C520.240845,409.846802 520.240845,411.236542 520.240845,413.000000 
	C522.758789,413.000000 525.047302,413.000000 528.252197,413.000000 
z"/>
<path fill="#FF4900" opacity="1.000000" stroke="none" 
	d="
M433.344360,402.862366 
	C435.681610,407.698822 435.614166,411.883331 431.439087,415.405640 
	C436.542969,419.987793 434.730591,425.933929 434.929962,431.783112 
	C431.963654,431.783112 429.354736,431.783112 426.877258,431.783112 
	C426.014313,428.482483 426.154053,423.885834 423.991913,422.140167 
	C421.668365,420.264221 417.183746,421.064941 413.142944,420.645966 
	C413.142944,424.640289 413.142944,428.047455 413.142944,431.721649 
	C409.965088,431.721649 407.239502,431.721649 404.252991,431.721649 
	C404.252991,420.923492 404.252991,410.203827 404.252991,398.575104 
	C412.267792,399.056366 420.112915,399.391174 427.924072,400.100250 
	C429.694092,400.260986 431.346100,401.721313 433.344360,402.862366 
M416.617157,408.000061 
	C412.289124,407.393311 412.827362,409.978912 413.294769,413.124573 
	C417.760742,412.048920 422.993134,415.361450 426.973175,408.483704 
	C423.124603,408.286438 420.331055,408.143219 416.617157,408.000061 
z"/>
<path fill="#FF4900" opacity="1.000000" stroke="none" 
	d="
M641.708130,404.294983 
	C644.837097,408.448853 647.738831,412.304352 651.621826,417.463654 
	C651.621826,410.512238 651.621826,405.051239 651.621826,399.303589 
	C654.658447,399.303589 657.052124,399.303589 659.727051,399.303589 
	C659.727051,410.029633 659.727051,420.758911 659.727051,431.443268 
	C651.361084,434.778320 649.006531,427.461090 645.079590,423.181488 
	C642.499512,420.369659 640.355896,417.157196 637.003540,414.530365 
	C637.003540,420.230408 637.003540,425.930450 637.003540,431.803467 
	C633.916931,431.803467 631.304321,431.803467 628.344910,431.803467 
	C628.344910,421.127930 628.344910,410.402832 628.344910,399.323669 
	C633.506348,398.453278 638.551453,397.978485 641.708130,404.294983 
z"/>
<path fill="#FF4900" opacity="1.000000" stroke="none" 
	d="
M129.265091,409.761963 
	C131.269226,412.328369 133.013367,414.639221 135.550903,418.001251 
	C135.550903,411.176331 135.550903,405.412781 135.550903,399.330719 
	C138.610474,399.330719 141.007385,399.330719 143.706757,399.330719 
	C143.706757,409.991638 143.706757,420.730133 143.706757,431.447235 
	C136.923523,434.332764 133.454163,429.881042 130.066177,425.356354 
	C127.047775,421.325256 124.110435,417.233459 120.251678,411.957550 
	C120.251678,419.408051 120.251678,425.401886 120.251678,431.694580 
	C117.342102,431.694580 114.946236,431.694580 112.270950,431.694580 
	C112.270950,420.955566 112.270950,410.216736 112.270950,399.562714 
	C119.514603,396.864746 123.352432,401.122009 126.748596,406.336945 
	C127.455719,407.422760 128.250641,408.451385 129.265091,409.761963 
z"/>
<path fill="#FF4900" opacity="1.000000" stroke="none" 
	d="
M694.284790,412.999847 
	C692.558105,412.284241 690.938293,411.851776 690.032288,410.802826 
	C686.633545,406.867981 678.822205,406.754791 675.723206,410.785156 
	C672.956787,414.382935 673.467773,418.295654 677.141113,421.644012 
	C680.607788,424.803986 686.244568,425.359711 688.450562,421.724548 
	C691.478821,416.734497 695.515442,418.212189 699.555542,418.069672 
	C700.169434,427.146698 694.038513,433.002930 683.096191,432.891571 
	C671.037903,432.768860 665.494263,428.238312 665.275452,415.859680 
	C665.082642,404.951111 668.526367,397.958984 686.253723,398.960754 
	C694.116211,399.405121 700.401672,404.475555 699.591675,413.000000 
	C697.992737,413.000000 696.356018,413.000000 694.284790,412.999847 
z"/>
<path fill="#FF4900" opacity="1.000000" stroke="none" 
	d="
M254.958466,399.542145 
	C260.502014,399.509979 265.859375,399.149384 270.926331,400.195374 
	C276.326904,401.310242 279.216064,406.856720 278.567932,412.914795 
	C274.681946,412.846710 270.759338,414.119904 267.847290,409.552887 
	C266.062988,406.754517 258.089813,407.353851 255.682022,409.800659 
	C253.290634,412.230804 253.236572,418.622284 255.586411,421.101074 
	C259.160095,424.870911 264.601227,425.538025 267.662384,421.544006 
	C270.790131,417.463135 274.343658,417.720947 278.777283,418.287842 
	C279.682861,422.925812 277.739594,426.463928 274.232483,429.220123 
	C266.067474,435.636963 248.518661,433.819336 245.885010,423.407166 
	C243.455734,413.803070 244.535217,401.078003 254.958466,399.542145 
z"/>
<path fill="#FF4900" opacity="1.000000" stroke="none" 
	d="
M720.971741,399.000000 
	C724.435791,399.000000 727.406372,399.000000 730.687256,399.000000 
	C730.687256,401.972778 730.687256,404.696716 730.687256,408.020874 
	C724.858276,408.020874 718.977600,408.020874 713.096863,408.020874 
	C713.031067,408.672424 712.965271,409.323975 712.899414,409.975555 
	C718.100342,412.414917 724.118591,410.015198 729.750671,411.398346 
	C729.750671,414.096313 729.750671,416.818634 729.750671,419.844940 
	C724.329285,419.844940 719.058838,419.844940 713.652466,419.844940 
	C712.646301,422.406738 712.286621,424.121460 715.848572,424.029663 
	C720.655701,423.905731 725.468384,423.998901 730.638733,423.998901 
	C730.638733,426.550690 730.638733,428.944977 730.638733,431.673950 
	C722.436340,431.673950 714.044983,431.673950 705.325073,431.673950 
	C705.325073,421.065094 705.325073,410.353729 705.325073,399.000000 
	C710.312378,399.000000 715.395386,399.000000 720.971741,399.000000 
z"/>
<path fill="#FF4900" opacity="1.000000" stroke="none" 
	d="
M391.944824,424.000000 
	C394.407349,424.000000 396.382935,424.000000 398.678223,424.000000 
	C398.678223,426.623688 398.678223,429.016327 398.678223,431.708923 
	C390.354858,431.708923 381.966003,431.708923 373.286926,431.708923 
	C373.286926,420.985718 373.286926,410.274933 373.286926,399.280823 
	C381.698029,399.280823 390.080383,399.280823 398.732635,399.280823 
	C398.732635,402.061401 398.732635,404.784241 398.732635,408.000824 
	C393.694489,408.000824 388.751007,407.912262 383.816162,408.078827 
	C382.878967,408.110443 381.975922,409.152588 381.057098,409.728485 
	C381.962860,410.152039 382.859375,410.916687 383.775970,410.941650 
	C388.383392,411.067017 392.996094,410.999146 397.797180,410.999146 
	C397.797180,414.065338 397.797180,416.676849 397.797180,419.329346 
	C392.646820,422.118164 385.486755,417.033112 380.796478,421.985352 
	C380.909332,422.656891 381.022156,423.328461 381.135010,424.000000 
	C384.575989,424.000000 388.016937,424.000000 391.944824,424.000000 
z"/>
<path fill="#FF4900" opacity="1.000000" stroke="none" 
	d="
M304.777252,410.993469 
	C305.836334,409.710175 306.776245,408.471619 306.922302,407.145569 
	C307.193085,404.687927 306.999878,402.179199 306.999878,399.347565 
	C309.904083,399.347565 312.634918,399.347565 316.000000,399.347565 
	C316.000000,404.646149 316.000000,410.081055 316.000000,415.515961 
	C316.000000,420.821045 316.000000,426.126129 316.000000,431.713104 
	C312.972046,431.713104 310.244415,431.713104 307.042542,431.713104 
	C307.042542,427.924866 307.042542,424.176483 307.042542,420.225891 
	C301.971100,420.225891 297.358307,420.225891 292.266907,420.225891 
	C292.266907,423.854706 292.266907,427.588867 292.266907,431.661316 
	C289.410156,431.661316 287.011475,431.661316 284.301849,431.661316 
	C284.301849,421.030457 284.301849,410.293488 284.301849,399.277008 
	C286.712067,399.277008 289.106964,399.277008 291.974792,399.277008 
	C291.974792,403.089172 291.974792,406.839233 291.974792,410.998688 
	C296.384949,410.998688 300.342438,410.998688 304.777252,410.993469 
z"/>
<path fill="#FF4900" opacity="1.000000" stroke="none" 
	d="
M347.060364,109.048561 
	C343.446930,107.526749 340.041748,106.371788 337.094513,104.496948 
	C331.528229,100.956009 331.178772,95.278404 332.262390,89.554504 
	C333.702606,81.946991 337.541504,75.629158 345.597046,74.189697 
	C352.343018,72.984253 359.653412,71.940910 366.209106,73.286003 
	C380.208923,76.158470 387.421936,86.115616 382.996857,100.391579 
	C382.192383,102.986984 379.726410,105.907501 377.277740,107.004738 
	C367.713593,111.290337 357.708801,112.724510 347.060364,109.048561 
M376.369781,101.931458 
	C379.308167,98.218018 380.257050,89.065041 377.805115,86.314613 
	C373.958923,82.000237 369.802979,77.840965 363.666779,77.343468 
	C355.452179,76.677460 347.064087,76.675598 340.689362,82.941910 
	C334.226288,89.295082 336.031403,98.669777 344.065033,102.549889 
	C354.624420,107.649902 365.142059,107.095558 376.369781,101.931458 
z"/>
<path fill="#FF4900" opacity="1.000000" stroke="none" 
	d="
M367.886292,414.268005 
	C365.242340,420.424072 360.225128,421.778748 354.616302,421.983276 
	C351.973511,422.079681 349.324310,421.999817 346.221375,421.999817 
	C346.221375,425.236267 346.221375,428.300781 346.221375,431.682159 
	C343.382843,431.682159 340.990723,431.682159 338.291382,431.682159 
	C338.291382,421.030273 338.291382,410.316101 338.291382,398.588226 
	C346.123901,399.067810 353.964508,399.248871 361.723541,400.140045 
	C366.072479,400.639557 367.342987,404.587463 367.948242,408.386688 
	C368.232025,410.168060 367.983185,412.034302 367.886292,414.268005 
M352.388489,408.000000 
	C350.297150,408.000000 348.205841,408.000000 345.845551,408.000000 
	C346.059265,410.072388 346.203156,411.468018 346.360321,412.992188 
	C349.863129,412.992188 353.025299,413.208679 356.126801,412.869781 
	C357.153809,412.757568 358.024597,411.215332 358.966827,410.326904 
	C358.075012,409.555603 357.288727,408.548401 356.258118,408.087341 
	C355.427734,407.715820 354.302155,408.004303 352.388489,408.000000 
z"/>
<path fill="#FF4900" opacity="1.000000" stroke="none" 
	d="
M168.266968,399.057495 
	C175.326416,399.337097 181.939423,399.364655 188.478851,400.072266 
	C194.800858,400.756378 198.264740,406.322845 196.796524,412.480743 
	C195.155426,419.363586 191.936432,421.620758 183.070862,421.984009 
	C180.594025,422.085541 178.109482,421.999542 175.163666,421.999542 
	C175.163666,425.290131 175.163666,428.365845 175.163666,431.716675 
	C172.308456,431.716675 169.910645,431.716675 167.788330,431.716675 
	C167.788330,420.798553 167.788330,409.950714 168.266968,399.057495 
M179.547119,408.000000 
	C178.104767,408.075836 176.662399,408.151642 174.978973,408.240143 
	C175.076950,409.968781 175.155853,411.360809 175.247620,412.979858 
	C178.898163,412.979858 182.206909,413.155457 185.474319,412.865417 
	C186.372421,412.785675 187.146927,411.313751 187.978134,410.480682 
	C187.134064,409.659943 186.408936,408.381104 185.418518,408.123871 
	C183.864426,407.720337 182.131348,408.006134 179.547119,408.000000 
z"/>
<path fill="#FF4900" opacity="1.000000" stroke="none" 
	d="
M614.655212,429.221283 
	C613.409729,427.925354 612.525146,426.275696 611.443115,426.134125 
	C608.500366,425.749084 605.471252,425.930450 602.482727,426.048676 
	C601.654236,426.081451 600.220154,426.554932 600.126465,427.033997 
	C598.859375,433.513275 594.007935,432.019318 589.131714,431.844238 
	C593.256653,420.894409 597.313660,410.124969 601.389404,399.305786 
	C601.627258,399.231750 601.939331,399.056213 602.255981,399.047455 
	C611.764648,398.784302 611.723450,398.803528 615.283508,407.636505 
	C618.473145,415.550476 621.767212,423.422333 625.283325,431.963989 
	C621.440125,431.106567 617.445740,434.264954 614.655212,429.221283 
M606.633301,417.999969 
	C607.708374,417.900085 608.783508,417.800201 610.275635,417.661591 
	C609.068970,414.854614 608.027588,412.432037 606.657715,409.245239 
	C605.360107,412.697968 604.408875,415.229218 603.367676,417.999786 
	C604.522461,417.999786 605.175964,417.999786 606.633301,417.999969 
z"/>
<path fill="#FF4900" opacity="1.000000" stroke="none" 
	d="
M441.203094,431.937378 
	C440.489624,426.316742 440.156860,420.747009 440.025757,415.172485 
	C439.904724,410.026215 440.000000,404.874878 440.000000,399.363220 
	C448.526917,399.363220 456.913208,399.363220 465.651855,399.363220 
	C465.651855,401.903870 465.651855,404.628265 465.651855,407.961060 
	C460.250366,407.961060 454.701904,407.961060 448.285034,407.961060 
	C450.522736,412.730164 454.045959,410.553650 456.578552,410.906158 
	C459.486145,411.310822 462.493378,411.000000 465.726501,411.000000 
	C465.726501,414.050049 465.726501,416.774170 465.726501,419.963989 
	C460.246735,419.963989 454.840729,419.963989 449.163177,419.963989 
	C449.163177,424.021820 449.163177,427.630768 449.163177,431.986206 
	C446.487610,431.986206 444.079681,431.986206 441.203094,431.937378 
z"/>
<path fill="#FF4900" opacity="1.000000" stroke="none" 
	d="
M223.946594,409.282379 
	C220.861359,408.410034 217.818451,408.012482 214.371918,407.562225 
	C214.371918,405.152893 214.371918,402.421082 214.371918,399.340576 
	C223.549271,399.340576 232.943237,399.340576 242.670273,399.340576 
	C242.670273,401.941711 242.670273,404.667694 242.670273,407.862549 
	C239.353653,407.862549 235.945831,407.862549 232.088455,407.862549 
	C232.088455,416.042358 232.088455,423.775146 232.088455,431.749390 
	C229.239807,431.749390 226.847519,431.749390 223.988907,431.749390 
	C223.988907,424.317291 223.988907,417.037262 223.946594,409.282379 
z"/>
<path fill="#FF4900" opacity="1.000000" stroke="none" 
	d="
M200.000000,422.958313 
	C200.009842,415.161652 200.016968,407.860046 200.038773,400.558472 
	C200.039703,400.247559 200.176361,399.937042 200.323517,399.314331 
	C202.965958,399.314331 205.686768,399.314331 208.707916,399.314331 
	C208.707916,409.968353 208.707916,420.669647 208.707916,431.686707 
	C206.032059,431.686707 203.311279,431.686707 200.000000,431.686707 
	C200.000000,428.981812 200.000000,426.217560 200.000000,422.958313 
z"/>
<path fill="#FFFFFF" opacity="1.000000" stroke="none" 
	d="
M330.463135,237.980423 
	C322.440521,232.204300 314.641479,235.316589 306.847870,237.614700 
	C299.597260,239.752731 292.302856,241.752228 285.106018,244.057159 
	C282.580109,244.866150 279.721985,245.861649 277.975891,247.689438 
	C263.157593,263.201080 245.542221,275.219025 228.459930,287.913544 
	C225.321396,290.245911 222.171494,292.605896 219.305984,295.255096 
	C208.500610,305.244843 197.816895,315.366089 187.061951,325.410614 
	C186.373352,326.053741 185.498505,326.853210 184.657715,326.920258 
	C178.911545,327.378357 173.151688,327.851990 167.395309,327.863831 
	C165.951004,327.866821 163.817398,326.544708 163.174698,325.249176 
	C160.239853,319.333099 157.460648,313.306763 155.171829,307.117981 
	C154.104034,304.230835 154.867706,301.420563 158.566956,300.038269 
	C164.882233,297.678528 171.291229,295.360626 177.180206,292.144928 
	C180.882874,290.123077 183.974777,286.736969 186.872787,283.538879 
	C192.753235,277.049591 200.079239,273.055206 208.108414,270.009857 
	C216.319321,266.895538 222.891022,261.830200 228.838043,255.144669 
	C233.101944,250.351257 239.532272,247.362213 245.258224,244.016846 
	C258.433960,236.318954 268.145233,225.747192 273.200531,211.241577 
	C274.092133,208.683258 273.398560,205.486481 274.541382,203.117218 
	C278.668945,194.559967 282.736115,185.888763 287.850952,177.918304 
	C292.242340,171.075195 291.782928,162.507919 284.174377,158.927643 
	C281.828979,157.823990 278.662933,157.703583 276.035095,158.131149 
	C271.597382,158.853210 267.250244,160.245743 262.935913,161.584839 
	C256.919373,163.452255 254.712967,168.544662 252.969452,173.936050 
	C251.416809,178.737183 248.717834,182.218964 243.983765,184.723785 
	C237.161179,188.333664 230.909134,193.010239 224.312332,197.066879 
	C222.724167,198.043533 220.695724,198.996506 218.942932,198.878006 
	C214.421799,198.572372 209.852158,198.013382 205.468536,196.899673 
	C200.426636,195.618729 199.371674,190.621933 202.784882,186.694824 
	C205.566971,183.493866 207.793152,179.759293 210.816574,176.829727 
	C216.044250,171.764374 221.669647,167.105850 227.184006,162.341248 
	C231.273361,158.807892 235.929825,155.804718 239.495056,151.815826 
	C248.318558,141.943741 260.271729,138.156891 272.098969,134.083542 
	C279.422516,131.561295 286.816040,129.053894 294.373627,127.476006 
	C298.383026,126.638924 302.875366,127.418983 307.033875,128.138458 
	C315.433655,129.591721 323.389496,129.401505 331.562988,126.159004 
	C335.971771,124.409988 341.330261,124.846260 346.271271,124.717346 
	C349.859894,124.623711 353.461578,125.348137 357.065948,125.486122 
	C371.477753,126.037834 385.895447,126.442459 400.303680,127.069695 
	C402.306610,127.156898 404.268646,128.183594 406.604980,128.946533 
	C411.639984,133.734589 416.319641,138.351501 421.237793,143.203735 
	C416.981964,147.039612 412.017822,151.519257 407.039917,155.983459 
	C406.810791,156.188919 406.293030,156.176727 406.185974,156.398972 
	C401.965515,165.161224 396.046722,159.928314 391.025543,157.866562 
	C384.885773,155.345490 379.036346,155.182510 372.970215,157.516037 
	C372.666718,157.632782 372.389069,157.917480 372.090454,157.931274 
	C364.051849,158.302689 359.714325,163.084824 356.845306,170.098053 
	C356.133209,171.838806 354.004761,173.225677 352.229614,174.268356 
	C342.822052,179.794083 342.155823,188.770599 345.933228,197.658234 
	C346.314484,198.555298 346.526825,199.575333 347.091827,200.334076 
	C349.275543,203.266830 349.294281,205.473557 346.371521,208.340591 
	C341.531128,213.088684 340.022766,221.673203 346.505157,227.216446 
	C356.316254,235.606186 364.114807,245.876770 371.218445,256.655487 
	C372.522430,258.634094 372.839264,260.167786 371.351746,262.190704 
	C366.157776,269.254120 360.462372,276.052094 356.133698,283.623352 
	C350.286957,293.849823 345.143280,304.530884 340.438324,315.339142 
	C337.291229,322.568695 334.926697,324.494873 324.815308,322.880798 
	C320.744537,322.230957 316.683411,320.711151 312.961121,318.886932 
	C307.997375,316.454315 306.400970,310.472748 309.267212,306.365540 
	C315.027100,298.111847 320.841583,289.893646 326.780670,281.768311 
	C332.098785,274.492462 336.230194,266.777496 338.143005,257.830933 
	C340.119812,248.585159 338.575958,243.704041 330.463135,237.980423 
z"/>
<path fill="#FFFFFF" opacity="1.000000" stroke="none" 
	d="
M420.077209,184.048187 
	C428.115784,187.205902 433.360474,191.522491 440.492676,200.766571 
	C431.734650,208.147980 422.938995,215.565903 414.130188,222.968185 
	C413.767212,223.273209 413.239716,223.377258 412.858948,223.667038 
	C410.559753,225.416718 408.250641,228.617020 406.003693,228.569168 
	C403.653229,228.519135 401.414154,225.293640 399.047394,223.564270 
	C392.356354,218.675247 385.441681,214.069641 378.988556,208.887375 
	C375.881348,206.392075 373.198730,203.109848 371.079803,199.712494 
	C368.822723,196.093613 366.417358,195.079880 362.710938,197.059006 
	C361.847351,197.520126 360.975525,197.965866 360.106567,198.416885 
	C354.122620,201.522827 352.319672,200.747284 349.960358,194.053375 
	C347.562714,187.250656 349.036377,183.099594 354.981018,178.956940 
	C357.039062,177.522751 359.796448,175.914185 360.437256,173.832153 
	C362.939575,165.701981 369.665497,163.354004 376.512604,161.345886 
	C379.424591,160.491837 382.763733,161.068497 385.908844,161.064987 
	C386.345123,161.064514 386.771332,161.493042 387.220032,161.680374 
	C390.751587,163.154877 394.287476,164.619003 399.133972,166.630936 
	C392.893951,171.311752 387.534058,175.545212 381.953979,179.465195 
	C374.700897,184.560440 371.774414,191.770081 374.174500,199.526794 
	C376.114532,205.796722 383.164062,210.516586 390.880829,211.037918 
	C396.509277,211.418182 400.780426,209.122925 405.024658,205.641602 
	C412.103699,199.835098 416.393372,192.347885 420.077209,184.048187 
z"/>
<path fill="#FFFFFF" opacity="1.000000" stroke="none" 
	d="
M446.732300,172.223389 
	C453.919312,176.975739 460.567841,182.014984 467.874573,185.775360 
	C472.845581,188.333664 473.134216,191.052887 471.013489,195.264877 
	C470.585114,196.115631 470.199036,196.994354 469.697876,197.800781 
	C461.582489,210.859604 459.179413,209.717575 448.545044,200.053146 
	C440.406433,192.656860 432.230865,185.301285 423.612091,177.512177 
	C428.007355,173.229477 433.160736,168.208084 438.761658,162.750610 
	C441.873138,166.468155 444.173676,169.216797 446.732300,172.223389 
z"/>
<path fill="#FFFFFF" opacity="1.000000" stroke="none" 
	d="
M459.036987,172.966919 
	C458.876984,173.781891 458.749176,174.235504 458.621399,174.689117 
	C453.962158,171.713394 449.664886,168.395065 447.054230,162.918365 
	C453.122864,161.066254 458.662170,159.610825 464.588867,164.277893 
	C462.757324,167.041183 460.913239,169.823380 459.036987,172.966919 
z"/>
<path fill="#FFFFFF" opacity="1.000000" stroke="none" 
	d="
M98.872650,419.297791 
	C92.441231,426.084106 84.390480,425.318329 81.540474,418.062378 
	C79.710022,413.402100 83.103584,408.187592 88.088867,408.000214 
	C97.594193,407.642944 99.056549,409.106689 98.872650,419.297791 
z"/>
<path fill="#FFFFFF" opacity="1.000000" stroke="none" 
	d="
M493.020081,408.525208 
	C497.506836,410.356201 498.332855,413.911896 497.657135,417.543884 
	C496.886902,421.683777 492.025970,424.395447 487.335938,423.991272 
	C482.565338,423.580109 479.842682,420.414825 479.241364,416.214569 
	C478.789062,413.054993 480.160889,409.490295 483.965179,408.659332 
	C486.779480,408.044617 489.793701,408.345032 493.020081,408.525208 
z"/>
<path fill="#FFFFFF" opacity="1.000000" stroke="none" 
	d="
M527.794067,413.000000 
	C525.047302,413.000000 522.758789,413.000000 520.240845,413.000000 
	C520.240845,411.236542 520.240845,409.846802 520.240845,408.227539 
	C524.446960,408.227539 528.524109,408.227539 532.665710,408.227539 
	C533.821228,412.409241 531.640503,413.270874 527.794067,413.000000 
z"/>
<path fill="#FFFFFF" opacity="1.000000" stroke="none" 
	d="
M417.077332,408.000061 
	C420.331055,408.143219 423.124603,408.286438 426.973175,408.483704 
	C422.993134,415.361450 417.760742,412.048920 413.294769,413.124573 
	C412.827362,409.978912 412.289124,407.393311 417.077332,408.000061 
z"/>
<path fill="#FFFFFF" opacity="1.000000" stroke="none" 
	d="
M375.968994,101.997826 
	C365.142059,107.095558 354.624420,107.649902 344.065033,102.549889 
	C336.031403,98.669777 334.226288,89.295082 340.689362,82.941910 
	C347.064087,76.675598 355.452179,76.677460 363.666779,77.343468 
	C369.802979,77.840965 373.958923,82.000237 377.805115,86.314613 
	C380.257050,89.065041 379.308167,98.218018 375.968994,101.997826 
z"/>
<path fill="#FFFFFF" opacity="1.000000" stroke="none" 
	d="
M352.848022,408.000000 
	C354.302155,408.004303 355.427734,407.715820 356.258118,408.087341 
	C357.288727,408.548401 358.075012,409.555603 358.966827,410.326904 
	C358.024597,411.215332 357.153809,412.757568 356.126801,412.869781 
	C353.025299,413.208679 349.863129,412.992188 346.360321,412.992188 
	C346.203156,411.468018 346.059265,410.072388 345.845551,408.000000 
	C348.205841,408.000000 350.297150,408.000000 352.848022,408.000000 
z"/>
<path fill="#FFFFFF" opacity="1.000000" stroke="none" 
	d="
M180.010590,408.000000 
	C182.131348,408.006134 183.864426,407.720337 185.418518,408.123871 
	C186.408936,408.381104 187.134064,409.659943 187.978149,410.480713 
	C187.146927,411.313751 186.372421,412.785675 185.474319,412.865417 
	C182.206909,413.155457 178.898163,412.979858 175.247620,412.979858 
	C175.155853,411.360809 175.076950,409.968781 174.978973,408.240143 
	C176.662399,408.151642 178.104767,408.075836 180.010590,408.000000 
z"/>
<path fill="#FFFFFF" opacity="1.000000" stroke="none" 
	d="
M606.231384,417.999878 
	C605.175964,417.999786 604.522461,417.999786 603.367676,417.999786 
	C604.408875,415.229218 605.360107,412.697968 606.657715,409.245239 
	C608.027588,412.432037 609.068970,414.854614 610.275635,417.661591 
	C608.783508,417.800201 607.708374,417.900085 606.231384,417.999878 
z"/>
</svg>